<svg width="32" height="32" viewBox="0 0 32 32" fill="none" xmlns="http://www.w3.org/2000/svg">
<g clip-path="url(#clip0_62_4799)">
<path d="M16 6C14.0222 6 12.0888 6.58649 10.4443 7.6853C8.79981 8.78412 7.51809 10.3459 6.76121 12.1732C6.00433 14.0004 5.8063 16.0111 6.19215 17.9509C6.578 19.8907 7.53041 21.6725 8.92894 23.0711C10.3275 24.4696 12.1093 25.422 14.0491 25.8078C15.9889 26.1937 17.9996 25.9957 19.8268 25.2388C21.6541 24.4819 23.2159 23.2002 24.3147 21.5557C25.4135 19.9112 26 17.9778 26 16C25.9971 13.3487 24.9426 10.8068 23.0679 8.9321C21.1932 7.05736 18.6513 6.00287 16 6V6ZM24.29 15.145C24.2928 15.174 24.2895 15.2033 24.2803 15.2309C24.2712 15.2586 24.2564 15.284 24.2369 15.3057C24.2174 15.3273 24.1936 15.3446 24.167 15.3566C24.1404 15.3685 24.1116 15.3748 24.0825 15.375H22.405C22.3543 15.3752 22.3053 15.3568 22.2672 15.3233C22.2292 15.2899 22.2046 15.2436 22.1983 15.1933C22.0551 14.1002 21.6237 13.0648 20.9483 12.1933C20.9174 12.1532 20.9022 12.1031 20.9054 12.0525C20.9086 12.002 20.9301 11.9543 20.9658 11.9183L22.1517 10.7333C22.1723 10.7127 22.197 10.6966 22.2243 10.6861C22.2515 10.6756 22.2806 10.671 22.3098 10.6724C22.3389 10.6739 22.3674 10.6815 22.3935 10.6948C22.4195 10.708 22.4424 10.7265 22.4608 10.7492C23.4869 12.0043 24.1228 13.5325 24.29 15.145ZM16.625 7.91667C16.6251 7.88749 16.6313 7.85866 16.6432 7.83202C16.6551 7.80539 16.6724 7.78153 16.6941 7.76199C16.7157 7.74245 16.7412 7.72765 16.7689 7.71856C16.7967 7.70946 16.826 7.70626 16.855 7.70917C18.4684 7.87497 19.9978 8.51004 21.2542 9.53583C21.2767 9.55432 21.2951 9.57726 21.3083 9.60322C21.3215 9.62918 21.3292 9.65759 21.3308 9.68667C21.3324 9.71585 21.3278 9.74505 21.3173 9.77233C21.3069 9.79962 21.2907 9.82438 21.27 9.845L20.0833 11.0317C20.0476 11.0675 20.0001 11.0891 19.9496 11.0923C19.8991 11.0955 19.8491 11.0802 19.8092 11.0492C18.9365 10.3733 17.8996 9.94185 16.805 9.79917C16.7548 9.79287 16.7087 9.76849 16.6753 9.73059C16.6418 9.69269 16.6233 9.64388 16.6233 9.59333L16.625 7.91667ZM19.3333 12.6667C19.3333 12.8315 19.2845 12.9926 19.1929 13.1296C19.1013 13.2667 18.9712 13.3735 18.8189 13.4366C18.6666 13.4996 18.4991 13.5161 18.3374 13.484C18.1758 13.4518 18.0273 13.3725 17.9107 13.2559C17.7942 13.1394 17.7148 12.9909 17.6827 12.8292C17.6505 12.6676 17.667 12.5 17.7301 12.3478C17.7932 12.1955 17.9 12.0653 18.037 11.9738C18.1741 11.8822 18.3352 11.8333 18.5 11.8333C18.721 11.8333 18.933 11.9211 19.0893 12.0774C19.2455 12.2337 19.3333 12.4457 19.3333 12.6667ZM15.145 7.71C15.174 7.70722 15.2033 7.71051 15.2309 7.71966C15.2586 7.7288 15.284 7.74361 15.3057 7.76312C15.3273 7.78264 15.3446 7.80644 15.3566 7.83302C15.3685 7.8596 15.3748 7.88837 15.375 7.9175V9.595C15.3752 9.64569 15.3568 9.6947 15.3234 9.73278C15.2899 9.77085 15.2436 9.79536 15.1933 9.80167C14.0988 9.9445 13.062 10.3759 12.1892 11.0517C12.149 11.0819 12.0993 11.0965 12.0492 11.0928C11.999 11.0892 11.952 11.0674 11.9167 11.0317L10.73 9.84583C10.7092 9.82531 10.6929 9.80056 10.6824 9.77325C10.6719 9.74594 10.6674 9.7167 10.6692 9.6875C10.6711 9.65806 10.6794 9.62937 10.6933 9.60336C10.7073 9.57735 10.7266 9.55461 10.75 9.53667C12.0052 8.51162 13.533 7.8766 15.145 7.71ZM9.53667 10.75C9.55452 10.7263 9.57719 10.7066 9.60318 10.6922C9.62918 10.6779 9.65791 10.6691 9.6875 10.6667C9.71669 10.6651 9.74588 10.6697 9.77317 10.6802C9.80046 10.6906 9.82522 10.7068 9.84584 10.7275L11.0317 11.9167C11.0674 11.9526 11.0889 12.0003 11.0921 12.0509C11.0953 12.1015 11.0801 12.1515 11.0492 12.1917C10.3738 13.0631 9.94241 14.0985 9.79917 15.1917C9.79288 15.2418 9.76849 15.288 9.73059 15.3214C9.69269 15.3549 9.64389 15.3733 9.59334 15.3733H7.91667C7.8875 15.3732 7.85867 15.3671 7.83203 15.3552C7.80539 15.3433 7.78153 15.3259 7.76199 15.3043C7.74245 15.2826 7.72766 15.2571 7.71856 15.2294C7.70946 15.2017 7.70627 15.1724 7.70917 15.1433C7.87632 13.5319 8.51162 12.0046 9.53667 10.75ZM7.71 16.855C7.70723 16.8261 7.7105 16.7969 7.7196 16.7693C7.72869 16.7417 7.74342 16.7162 7.76284 16.6946C7.78227 16.673 7.80597 16.6557 7.83245 16.6437C7.85893 16.6317 7.88761 16.6253 7.91667 16.625H9.595C9.6457 16.6248 9.69471 16.6432 9.73278 16.6766C9.77085 16.7101 9.79536 16.7564 9.80167 16.8067C9.94491 17.8998 10.3763 18.9352 11.0517 19.8067C11.0826 19.8468 11.0978 19.8969 11.0946 19.9475C11.0914 19.998 11.0699 20.0457 11.0342 20.0817L9.84584 21.27C9.82522 21.2907 9.80049 21.3067 9.77325 21.3172C9.74602 21.3277 9.71688 21.3324 9.68773 21.3309C9.65858 21.3294 9.63007 21.3218 9.60405 21.3086C9.57803 21.2954 9.55507 21.2768 9.53667 21.2542C8.51088 19.9978 7.87581 18.4684 7.71 16.855ZM15.3767 24.0825C15.3766 24.1117 15.3704 24.1405 15.3585 24.1671C15.3466 24.1938 15.3293 24.2176 15.3076 24.2372C15.286 24.2567 15.2604 24.2715 15.2327 24.2806C15.205 24.2897 15.1757 24.2929 15.1467 24.29C13.5341 24.1237 12.0056 23.4887 10.75 22.4633C10.7275 22.4448 10.7091 22.4219 10.6959 22.3959C10.6827 22.37 10.675 22.3416 10.6733 22.3125C10.6718 22.2833 10.6764 22.2541 10.6868 22.2268C10.6973 22.1995 10.7134 22.1748 10.7342 22.1542L11.9167 20.9683C11.9524 20.9325 12 20.9109 12.0504 20.9077C12.1009 20.9045 12.1509 20.9198 12.1908 20.9508C13.0635 21.6267 14.1004 22.0582 15.195 22.2008C15.2452 22.2071 15.2913 22.2315 15.3247 22.2694C15.3582 22.3073 15.3767 22.3561 15.3767 22.4067V24.0825ZM16 19.5417C15.8342 19.5417 15.6753 19.4758 15.5581 19.3586C15.4409 19.2414 15.375 19.0824 15.375 18.9167V17.68C15.375 17.6412 15.3642 17.6031 15.3437 17.5702C15.3232 17.5372 15.2939 17.5106 15.2592 17.4933C14.935 17.3305 14.672 17.0675 14.5092 16.7433C14.4919 16.7086 14.4653 16.6793 14.4323 16.6588C14.3994 16.6383 14.3613 16.6275 14.3225 16.6275H13.0833C12.9176 16.6275 12.7586 16.5617 12.6414 16.4444C12.5242 16.3272 12.4583 16.1683 12.4583 16.0025C12.4583 15.8367 12.5242 15.6778 12.6414 15.5606C12.7586 15.4433 12.9176 15.3775 13.0833 15.3775H14.32C14.3588 15.3775 14.3969 15.3667 14.4298 15.3462C14.4628 15.3257 14.4894 15.2964 14.5067 15.2617C14.6695 14.9375 14.9325 14.6745 15.2567 14.5117C15.2914 14.4944 15.3207 14.4678 15.3412 14.4348C15.3617 14.4019 15.3725 14.3638 15.3725 14.325V13.0833C15.3725 12.9176 15.4384 12.7586 15.5556 12.6414C15.6728 12.5242 15.8317 12.4583 15.9975 12.4583C16.1633 12.4583 16.3222 12.5242 16.4394 12.6414C16.5567 12.7586 16.6225 12.9176 16.6225 13.0833V14.32C16.6225 14.3588 16.6333 14.3969 16.6538 14.4298C16.6743 14.4628 16.7036 14.4894 16.7383 14.5067C17.0625 14.6695 17.3255 14.9325 17.4883 15.2567C17.5056 15.2914 17.5322 15.3207 17.5652 15.3412C17.5981 15.3617 17.6362 15.3725 17.675 15.3725H18.9167C19.0824 15.3725 19.2414 15.4383 19.3586 15.5556C19.4758 15.6728 19.5417 15.8317 19.5417 15.9975C19.5417 16.1633 19.4758 16.3222 19.3586 16.4394C19.2414 16.5567 19.0824 16.6225 18.9167 16.6225H17.68C17.6412 16.6225 17.6031 16.6333 17.5702 16.6538C17.5372 16.6743 17.5106 16.7036 17.4933 16.7383C17.3305 17.0625 17.0675 17.3255 16.7433 17.4883C16.7086 17.5056 16.6793 17.5322 16.6588 17.5652C16.6383 17.5981 16.6275 17.6362 16.6275 17.675V18.9167C16.6275 18.999 16.6113 19.0804 16.5797 19.1564C16.5481 19.2324 16.5019 19.3014 16.4436 19.3595C16.3853 19.4176 16.3161 19.4635 16.2399 19.4948C16.1638 19.5261 16.0823 19.542 16 19.5417ZM16.855 24.2917C16.826 24.2944 16.7967 24.2911 16.7691 24.282C16.7414 24.2729 16.716 24.2581 16.6943 24.2385C16.6727 24.219 16.6554 24.1952 16.6434 24.1686C16.6315 24.1421 16.6252 24.1133 16.625 24.0842V22.405C16.6248 22.3543 16.6432 22.3053 16.6767 22.2672C16.7101 22.2291 16.7564 22.2046 16.8067 22.1983C17.9012 22.0557 18.9381 21.6242 19.8108 20.9483C19.8508 20.9173 19.9007 20.902 19.9512 20.9052C20.0017 20.9084 20.0493 20.93 20.085 20.9658L21.27 22.1517C21.2909 22.1722 21.3071 22.1969 21.3176 22.2242C21.3281 22.2516 21.3326 22.2808 21.3308 22.31C21.3294 22.3391 21.3218 22.3676 21.3086 22.3936C21.2954 22.4196 21.2768 22.4425 21.2542 22.4608C19.9981 23.4875 18.4687 24.1235 16.855 24.29V24.2917ZM22.4633 21.2558C22.4449 21.2783 22.4219 21.2968 22.3959 21.31C22.37 21.3232 22.3416 21.3308 22.3125 21.3325C22.2833 21.3341 22.2541 21.3295 22.2268 21.319C22.1995 21.3085 22.1748 21.2924 22.1542 21.2717L20.9683 20.0833C20.9326 20.0474 20.9111 19.9997 20.9079 19.9491C20.9047 19.8985 20.9199 19.8485 20.9508 19.8083C21.6262 18.9369 22.0576 17.9015 22.2008 16.8083C22.2071 16.7582 22.2315 16.712 22.2694 16.6786C22.3073 16.6451 22.3561 16.6267 22.4067 16.6267H24.0833C24.1125 16.6268 24.1413 16.6329 24.168 16.6448C24.1946 16.6567 24.2185 16.6741 24.238 16.6957C24.2576 16.7174 24.2723 16.7429 24.2814 16.7706C24.2905 16.7983 24.2937 16.8276 24.2908 16.8567C24.1245 18.4696 23.4891 19.9984 22.4633 21.2542V21.2558Z" fill="#4D3C6A"/>
</g>
<defs>
<clipPath id="clip0_62_4799">
<rect width="20" height="20" fill="white" transform="translate(6 6)"/>
</clipPath>
</defs>
</svg>
