<svg width="32" height="32" viewBox="0 0 32 32" fill="none" xmlns="http://www.w3.org/2000/svg">
<g clip-path="url(#clip0_62_4826)">
<path d="M19.6435 16.3816C19.802 16.2446 19.9117 16.0615 19.9566 15.859C20.0016 15.6566 19.9795 15.4453 19.8935 15.256L18.9661 13.1643C18.9491 13.126 18.9445 13.0836 18.9528 13.0426C18.9612 13.0017 18.9821 12.9643 19.0128 12.9354L20.6884 11.3553C20.8325 11.2201 20.932 11.0458 20.9744 10.8547C21.0167 10.6636 20.9998 10.4645 20.9259 10.2829C20.8499 10.1044 20.7207 9.95265 20.5552 9.8476C20.3896 9.74255 20.1956 9.68911 19.9985 9.69431H18.1162C18.0761 9.69414 18.037 9.68274 18.0033 9.66145C17.9696 9.64016 17.9429 9.60987 17.9262 9.57415L16.9155 7.3949L16.908 7.38019C16.8232 7.21521 16.6932 7.07666 16.5326 6.98007C16.3721 6.88348 16.1872 6.83267 15.9989 6.83333C15.8078 6.83323 15.6206 6.88582 15.4585 6.98512C15.2964 7.08442 15.1661 7.22641 15.0823 7.3949L14.0708 9.57415C14.0542 9.60999 14.0275 9.64039 13.9938 9.66171C13.9601 9.68302 13.9209 9.69434 13.8808 9.69431H11.9993C11.8022 9.689 11.6081 9.74239 11.4425 9.84745C11.277 9.95252 11.1478 10.1043 11.0719 10.2829C10.9981 10.465 10.9815 10.6647 11.0244 10.8561C11.0674 11.0476 11.1678 11.222 11.3127 11.3569L12.985 12.9354C13.0158 12.9642 13.0368 13.0017 13.0451 13.0426C13.0535 13.0836 13.0488 13.126 13.0317 13.1643L12.106 15.2552C12.0199 15.4445 11.9977 15.6558 12.0426 15.8583C12.0876 16.0608 12.1974 16.2439 12.3559 16.3808C12.5144 16.5242 12.7153 16.6141 12.9296 16.6375C13.1438 16.6609 13.36 16.6165 13.5467 16.5108L15.8981 15.2111C15.9292 15.1938 15.9644 15.1848 16.0002 15.1848C16.0359 15.1848 16.0711 15.1938 16.1022 15.2111L18.4536 16.5108C18.6405 16.6152 18.8562 16.6589 19.07 16.6357C19.2837 16.6125 19.4844 16.5236 19.6435 16.3816Z" fill="#4D3C6A"/>
<path d="M13.7603 21.1889C13.7449 21.0826 13.7083 20.9803 13.6526 20.8878C13.5968 20.7954 13.5231 20.7146 13.4355 20.6501C13.348 20.5857 13.2483 20.5387 13.1423 20.512C13.0363 20.4853 12.9259 20.4794 12.8175 20.4945C12.7091 20.5096 12.6049 20.5456 12.5106 20.6002C12.4164 20.6549 12.3341 20.7272 12.2683 20.8131C12.2026 20.899 12.1548 20.9968 12.1275 21.1008C12.1003 21.2048 12.0943 21.3131 12.1097 21.4194L12.3322 22.939C12.3398 22.9926 12.3255 23.047 12.2924 23.0903C12.2593 23.1337 12.2101 23.1624 12.1555 23.1703L10.6132 23.3861C10.4046 23.4153 10.215 23.5209 10.0825 23.6817C9.95013 23.8425 9.88473 24.0465 9.89952 24.2527C9.9143 24.4589 10.0082 24.652 10.1622 24.793C10.3163 24.934 10.5191 25.0126 10.7298 25.0128C10.8131 25.0128 10.6582 25.0308 13.0096 24.7022C13.1723 24.6793 13.3287 24.6253 13.4701 24.543C13.6114 24.4608 13.7348 24.352 13.8333 24.223C13.9317 24.0939 14.0033 23.9471 14.0438 23.7908C14.0843 23.6346 14.093 23.4721 14.0695 23.3126L13.7603 21.1889Z" fill="#4D3C6A"/>
<path d="M11.18 22.1837C11.3093 22.0845 11.4173 21.9613 11.4979 21.821C11.5784 21.6807 11.6298 21.5262 11.6492 21.3663L11.845 19.765C11.8611 19.657 11.855 19.547 11.8271 19.4413C11.7992 19.3357 11.7501 19.2366 11.6825 19.1499C11.615 19.0632 11.5304 18.9907 11.4338 18.9366C11.3372 18.8825 11.2306 18.8479 11.1201 18.8348C11.0097 18.8218 10.8977 18.8305 10.7908 18.8606C10.6839 18.8907 10.5842 18.9415 10.4976 19.01C10.411 19.0785 10.3393 19.1632 10.2866 19.2594C10.2339 19.3555 10.2014 19.461 10.191 19.5696L10.0693 20.5595C10.0661 20.5861 10.0576 20.6119 10.0442 20.6353C10.0308 20.6587 10.0128 20.6793 9.99129 20.6959C9.96976 20.7124 9.9451 20.7247 9.91874 20.7318C9.89237 20.739 9.86482 20.741 9.83767 20.7377L8.83778 20.6183C8.62085 20.5969 8.40401 20.6598 8.23378 20.7934C8.06356 20.9271 7.9535 21.1208 7.92722 21.3331C7.90094 21.5455 7.96054 21.7594 8.09323 21.9291C8.22591 22.0989 8.42112 22.2108 8.63696 22.2409L10.261 22.4355C10.4235 22.455 10.5884 22.4428 10.7461 22.3996C10.9039 22.3564 11.0513 22.283 11.18 22.1837Z" fill="#4D3C6A"/>
<path d="M9.29351 19.5933C9.44418 19.5302 9.58064 19.4385 9.69504 19.3235C9.80945 19.2084 9.89953 19.0723 9.9601 18.923L10.4892 17.6307C10.53 17.531 10.5503 17.4244 10.5491 17.317C10.5479 17.2097 10.5251 17.1036 10.4821 17.0048C10.4391 16.9061 10.3766 16.8166 10.2984 16.7415C10.2201 16.6664 10.1275 16.6072 10.0259 16.5672C9.92433 16.5272 9.8157 16.5073 9.70623 16.5085C9.59677 16.5097 9.48862 16.532 9.38795 16.5742C9.28729 16.6164 9.19608 16.6776 9.11955 16.7544C9.04301 16.8312 8.98263 16.922 8.94187 17.0217L8.64691 17.7427C8.62634 17.7929 8.58626 17.8332 8.53548 17.8545C8.4847 17.8758 8.42737 17.8764 8.3761 17.8563L7.64617 17.5677C7.44238 17.4917 7.21633 17.4971 7.01652 17.5826C6.81671 17.6682 6.65906 17.8273 6.57739 18.0256C6.49572 18.2239 6.49654 18.4457 6.57967 18.6434C6.66281 18.8412 6.82163 18.9991 7.02207 19.0832L8.33527 19.6031C8.48765 19.664 8.65087 19.6945 8.81539 19.6928C8.97992 19.6911 9.14246 19.6573 9.29351 19.5933Z" fill="#4D3C6A"/>
<path d="M8.24977 16.8852C8.41264 16.8632 8.56941 16.8096 8.71091 16.7275C8.8524 16.6454 8.97579 16.5364 9.07385 16.407L9.82378 15.4261C9.93454 15.2758 9.98994 15.0931 9.98089 14.9079C9.97185 14.7227 9.89889 14.546 9.77399 14.4069C9.64909 14.2677 9.47967 14.1743 9.29355 14.1421C9.10743 14.1098 8.91566 14.1406 8.74972 14.2294L8.56391 12.6665C8.55143 12.5598 8.51767 12.4566 8.46454 12.3628C8.41141 12.2689 8.33996 12.1863 8.25427 12.1195C8.16858 12.0527 8.07032 12.0032 7.96511 11.9737C7.8599 11.9442 7.7498 11.9353 7.64108 11.9475C7.53237 11.9598 7.42718 11.9929 7.33152 12.045C7.23585 12.0971 7.15159 12.1672 7.08354 12.2513C7.01549 12.3353 6.96498 12.4317 6.93491 12.5349C6.90483 12.6382 6.89577 12.7462 6.90824 12.8528L7.10072 14.5007C6.93587 14.4425 6.75634 14.4373 6.58832 14.4862C6.4203 14.535 6.27256 14.6352 6.16665 14.7721C6.03406 14.9456 5.97713 15.1636 6.00838 15.3782C6.03963 15.5928 6.15651 15.7864 6.3333 15.9165L7.32653 16.6522C7.45712 16.7489 7.60594 16.8193 7.7644 16.8593C7.92286 16.8993 8.08783 16.9081 8.24977 16.8852Z" fill="#4D3C6A"/>
<path d="M21.3861 23.3861L19.8438 23.1703C19.7892 23.1624 19.74 23.1337 19.7069 23.0904C19.6738 23.047 19.6595 22.9926 19.6671 22.939L19.8879 21.4194C19.9191 21.2047 19.862 20.9866 19.7293 20.8131C19.5965 20.6397 19.399 20.5251 19.1801 20.4945C18.9612 20.4639 18.7389 20.5199 18.5621 20.6501C18.3853 20.7804 18.2684 20.9742 18.2373 21.1889L17.9298 23.3142C17.9062 23.4737 17.9149 23.6361 17.9554 23.7923C17.9959 23.9485 18.0674 24.0953 18.1657 24.2244C18.2641 24.3534 18.3874 24.4622 18.5286 24.5445C18.6699 24.6267 18.8263 24.6809 18.9889 24.7038C21.322 25.0308 21.1845 25.0152 21.2695 25.0152C21.4802 25.015 21.683 24.9365 21.837 24.7955C21.9911 24.6544 22.085 24.4614 22.0998 24.2552C22.1146 24.049 22.0492 23.8449 21.9167 23.6841C21.7843 23.5233 21.5947 23.4177 21.3861 23.3886V23.3861Z" fill="#4D3C6A"/>
<path d="M23.1649 20.62L22.165 20.7393C22.1379 20.7426 22.1103 20.7406 22.084 20.7335C22.0576 20.7263 22.0329 20.7141 22.0114 20.6975C21.9899 20.6809 21.9719 20.6604 21.9585 20.6369C21.9451 20.6135 21.9366 20.5878 21.9334 20.5611L21.8117 19.5712C21.7802 19.3603 21.666 19.1698 21.4934 19.0404C21.3207 18.9109 21.1034 18.8528 20.8877 18.8782C20.672 18.9037 20.4749 19.0109 20.3386 19.1768C20.2022 19.3427 20.1373 19.5544 20.1577 19.7666L20.3536 21.3679C20.3936 21.6904 20.5624 21.9841 20.823 22.1846C21.0836 22.385 21.4146 22.4759 21.7434 22.4371L23.3682 22.2425C23.5841 22.2124 23.7793 22.1005 23.912 21.9308C24.0447 21.7611 24.1043 21.5471 24.078 21.3348C24.0517 21.1224 23.9416 20.9287 23.7714 20.7951C23.6012 20.6614 23.3844 20.5986 23.1674 20.62H23.1649Z" fill="#4D3C6A"/>
<path d="M24.3488 17.5677L23.6189 17.8563C23.5676 17.8764 23.5103 17.8758 23.4595 17.8545C23.4087 17.8332 23.3686 17.7929 23.348 17.7427L23.0531 17.0217C22.9708 16.8204 22.8103 16.6594 22.607 16.5742C22.4037 16.489 22.1742 16.4865 21.969 16.5672C21.7638 16.648 21.5998 16.8054 21.5129 17.0048C21.426 17.2043 21.4234 17.4294 21.5057 17.6307L22.0349 18.9222C22.0962 19.072 22.187 19.2084 22.3022 19.3237C22.4173 19.4389 22.5546 19.5307 22.706 19.5938C22.8574 19.6569 23.02 19.6901 23.1846 19.6914C23.3491 19.6927 23.5122 19.6622 23.6647 19.6015L24.977 19.0816C25.1775 18.9974 25.3363 18.8395 25.4194 18.6418C25.5026 18.4441 25.5034 18.2223 25.4217 18.0239C25.3401 17.8256 25.1824 17.6666 24.9826 17.581C24.7828 17.4954 24.5567 17.4901 24.3529 17.5661L24.3488 17.5677Z" fill="#4D3C6A"/>
<path d="M25.8312 14.7721C25.7254 14.6355 25.5779 14.5355 25.4102 14.4867C25.2426 14.4379 25.0634 14.4428 24.8988 14.5007L25.0912 12.8528C25.1037 12.7462 25.0946 12.6382 25.0646 12.5349C25.0345 12.4317 24.984 12.3353 24.9159 12.2513C24.8479 12.1672 24.7636 12.0971 24.668 12.045C24.5723 11.9929 24.4671 11.9598 24.3584 11.9475C24.2497 11.9353 24.1396 11.9442 24.0344 11.9737C23.9292 12.0032 23.8309 12.0527 23.7452 12.1195C23.6595 12.1863 23.5881 12.2689 23.5349 12.3628C23.4818 12.4566 23.448 12.5598 23.4356 12.6665L23.2481 14.2294C23.0818 14.1388 22.8889 14.1068 22.7015 14.1387C22.514 14.1705 22.3434 14.2643 22.2178 14.4045C22.0923 14.5447 22.0194 14.7228 22.0113 14.9092C22.0031 15.0956 22.0603 15.2792 22.1732 15.4293L22.9231 16.4102C23.0216 16.5391 23.145 16.6476 23.2862 16.7296C23.4275 16.8117 23.5838 16.8656 23.7463 16.8884C23.9087 16.9111 24.0742 16.9023 24.2332 16.8623C24.3922 16.8224 24.5416 16.7521 24.6729 16.6555L25.6662 15.9198C25.7541 15.8552 25.8281 15.7743 25.884 15.6816C25.9399 15.5889 25.9765 15.4862 25.9918 15.3796C26.0072 15.273 26.0009 15.1644 25.9733 15.0601C25.9457 14.9559 25.8974 14.858 25.8312 14.7721Z" fill="#4D3C6A"/>
</g>
<defs>
<clipPath id="clip0_62_4826">
<rect width="20" height="20" fill="white" transform="translate(6 6)"/>
</clipPath>
</defs>
</svg>
