<svg width="32" height="32" viewBox="0 0 32 32" fill="none" xmlns="http://www.w3.org/2000/svg">
<path d="M24.3333 18.9167H20.5833C20.3623 18.9167 20.1504 18.8289 19.9941 18.6726C19.8378 18.5163 19.75 18.3043 19.75 18.0833C19.75 17.8623 19.8378 17.6504 19.9941 17.4941C20.1504 17.3378 20.3623 17.25 20.5833 17.25H24.125C24.1803 17.25 24.2332 17.2281 24.2723 17.189C24.3114 17.1499 24.3333 17.0969 24.3333 17.0417V7.875C24.3333 7.81975 24.3114 7.76676 24.2723 7.72769C24.2332 7.68862 24.1803 7.66667 24.125 7.66667H15.375C15.3197 7.66667 15.2668 7.68862 15.2277 7.72769C15.1886 7.76676 15.1667 7.81975 15.1667 7.875V11.4167C15.1667 11.6377 15.0789 11.8496 14.9226 12.0059C14.7663 12.1622 14.5543 12.25 14.3333 12.25C14.1123 12.25 13.9004 12.1622 13.7441 12.0059C13.5878 11.8496 13.5 11.6377 13.5 11.4167V7.66667C13.5 7.22464 13.6756 6.80072 13.9882 6.48816C14.3007 6.17559 14.7246 6 15.1667 6H24.3333C24.7754 6 25.1993 6.17559 25.5118 6.48816C25.8244 6.80072 26 7.22464 26 7.66667V17.25C26 17.692 25.8244 18.116 25.5118 18.4285C25.1993 18.7411 24.7754 18.9167 24.3333 18.9167Z" fill="#4D3C6A"/>
<path d="M21.8333 15.5834C22.2936 15.5834 22.6667 15.2103 22.6667 14.75C22.6667 14.2898 22.2936 13.9167 21.8333 13.9167C21.3731 13.9167 21 14.2898 21 14.75C21 15.2103 21.3731 15.5834 21.8333 15.5834Z" fill="#4D3C6A"/>
<path d="M21.8333 11C22.2936 11 22.6667 10.6269 22.6667 10.1666C22.6667 9.70641 22.2936 9.33331 21.8333 9.33331C21.3731 9.33331 21 9.70641 21 10.1666C21 10.6269 21.3731 11 21.8333 11Z" fill="#4D3C6A"/>
<path d="M18.0833 11C18.5436 11 18.9167 10.6269 18.9167 10.1666C18.9167 9.70641 18.5436 9.33331 18.0833 9.33331C17.6231 9.33331 17.25 9.70641 17.25 10.1666C17.25 10.6269 17.6231 11 18.0833 11Z" fill="#4D3C6A"/>
<path d="M17.25 13.5H7.25C6.91848 13.5 6.60054 13.6317 6.36612 13.8661C6.1317 14.1005 6 14.4185 6 14.75V24.75C6 25.0815 6.1317 25.3995 6.36612 25.6339C6.60054 25.8683 6.91848 26 7.25 26H17.25C17.5815 26 17.8995 25.8683 18.1339 25.6339C18.3683 25.3995 18.5 25.0815 18.5 24.75V14.75C18.5 14.4185 18.3683 14.1005 18.1339 13.8661C17.8995 13.6317 17.5815 13.5 17.25 13.5ZM8.91667 22.6667C8.75185 22.6667 8.59073 22.6178 8.45369 22.5262C8.31665 22.4347 8.20984 22.3045 8.14677 22.1522C8.08369 22 8.06719 21.8324 8.09935 21.6708C8.1315 21.5091 8.21087 21.3606 8.32741 21.2441C8.44395 21.1275 8.59244 21.0482 8.75409 21.016C8.91574 20.9839 9.0833 21.0004 9.23557 21.0634C9.38784 21.1265 9.51799 21.2333 9.60956 21.3704C9.70113 21.5074 9.75 21.6685 9.75 21.8333C9.75 22.0543 9.6622 22.2663 9.50592 22.4226C9.34964 22.5789 9.13768 22.6667 8.91667 22.6667ZM8.91667 18.5C8.75185 18.5 8.59073 18.4511 8.45369 18.3596C8.31665 18.268 8.20984 18.1378 8.14677 17.9856C8.08369 17.8333 8.06719 17.6657 8.09935 17.5041C8.1315 17.3424 8.21087 17.194 8.32741 17.0774C8.44395 16.9609 8.59244 16.8815 8.75409 16.8493C8.91574 16.8172 9.0833 16.8337 9.23557 16.8968C9.38784 16.9598 9.51799 17.0667 9.60956 17.2037C9.70113 17.3407 9.75 17.5018 9.75 17.6667C9.75 17.8877 9.6622 18.0996 9.50592 18.2559C9.34964 18.4122 9.13768 18.5 8.91667 18.5ZM12.25 22.6667C12.0852 22.6667 11.9241 22.6178 11.787 22.5262C11.65 22.4347 11.5432 22.3045 11.4801 22.1522C11.417 22 11.4005 21.8324 11.4327 21.6708C11.4648 21.5091 11.5442 21.3606 11.6607 21.2441C11.7773 21.1275 11.9258 21.0482 12.0874 21.016C12.2491 20.9839 12.4166 21.0004 12.5689 21.0634C12.7212 21.1265 12.8513 21.2333 12.9429 21.3704C13.0345 21.5074 13.0833 21.6685 13.0833 21.8333C13.0833 22.0543 12.9955 22.2663 12.8393 22.4226C12.683 22.5789 12.471 22.6667 12.25 22.6667ZM12.25 18.5C12.0852 18.5 11.9241 18.4511 11.787 18.3596C11.65 18.268 11.5432 18.1378 11.4801 17.9856C11.417 17.8333 11.4005 17.6657 11.4327 17.5041C11.4648 17.3424 11.5442 17.194 11.6607 17.0774C11.7773 16.9609 11.9258 16.8815 12.0874 16.8493C12.2491 16.8172 12.4166 16.8337 12.5689 16.8968C12.7212 16.9598 12.8513 17.0667 12.9429 17.2037C13.0345 17.3407 13.0833 17.5018 13.0833 17.6667C13.0833 17.8877 12.9955 18.0996 12.8393 18.2559C12.683 18.4122 12.471 18.5 12.25 18.5ZM15.5833 22.6667C15.4185 22.6667 15.2574 22.6178 15.1204 22.5262C14.9833 22.4347 14.8765 22.3045 14.8134 22.1522C14.7504 22 14.7339 21.8324 14.766 21.6708C14.7982 21.5091 14.8775 21.3606 14.9941 21.2441C15.1106 21.1275 15.2591 21.0482 15.4208 21.016C15.5824 20.9839 15.75 21.0004 15.9022 21.0634C16.0545 21.1265 16.1847 21.2333 16.2762 21.3704C16.3678 21.5074 16.4167 21.6685 16.4167 21.8333C16.4167 22.0543 16.3289 22.2663 16.1726 22.4226C16.0163 22.5789 15.8043 22.6667 15.5833 22.6667ZM15.5833 18.5C15.4185 18.5 15.2574 18.4511 15.1204 18.3596C14.9833 18.268 14.8765 18.1378 14.8134 17.9856C14.7504 17.8333 14.7339 17.6657 14.766 17.5041C14.7982 17.3424 14.8775 17.194 14.9941 17.0774C15.1106 16.9609 15.2591 16.8815 15.4208 16.8493C15.5824 16.8172 15.75 16.8337 15.9022 16.8968C16.0545 16.9598 16.1847 17.0667 16.2762 17.2037C16.3678 17.3407 16.4167 17.5018 16.4167 17.6667C16.4167 17.8877 16.3289 18.0996 16.1726 18.2559C16.0163 18.4122 15.8043 18.5 15.5833 18.5Z" fill="#4D3C6A"/>
</svg>
