<svg width="32" height="32" viewBox="0 0 32 32" fill="none" xmlns="http://www.w3.org/2000/svg">
<g clip-path="url(#clip0_62_4806)">
<path d="M16.6237 16.0013C16.6237 16.1118 16.6676 16.2177 16.7457 16.2959C16.8238 16.374 16.9298 16.4179 17.0403 16.4179H24.1227C24.5092 16.4172 24.8797 16.2634 25.153 15.9901C25.4264 15.7168 25.5802 15.3463 25.5809 14.9597V13.2933C25.5804 12.9067 25.4267 12.5361 25.1533 12.2627C24.8799 11.9893 24.5093 11.8356 24.1227 11.8351H17.0403C16.9298 11.8351 16.8238 11.879 16.7457 11.9572C16.6676 12.0353 16.6237 12.1412 16.6237 12.2517V16.0013Z" fill="#4D3C6A"/>
<path d="M8.9163 16.4179H14.9572C15.0677 16.4179 15.1737 16.374 15.2518 16.2959C15.3299 16.2177 15.3738 16.1118 15.3738 16.0013V12.2517C15.3738 12.1412 15.3299 12.0353 15.2518 11.9572C15.1737 11.879 15.0677 11.8351 14.9572 11.8351H7.45815C7.07156 11.8356 6.70093 11.9893 6.42757 12.2627C6.15421 12.5361 6.00044 12.9067 6 13.2933V14.9597C6.00066 15.3463 6.1545 15.7168 6.42781 15.9901C6.70112 16.2634 7.07163 16.4172 7.45815 16.4179H8.9163Z" fill="#4D3C6A"/>
<path d="M15.3739 18.0843C15.3739 17.9738 15.33 17.8679 15.2518 17.7897C15.1737 17.7116 15.0677 17.6677 14.9572 17.6677H8.08312C7.97262 17.6677 7.86666 17.7116 7.78853 17.7897C7.7104 17.8679 7.6665 17.9738 7.6665 18.0843V24.5419C7.66716 24.9284 7.821 25.2989 8.09432 25.5722C8.36763 25.8455 8.73813 25.9993 9.12465 26H14.9572C15.0677 26 15.1737 25.9561 15.2518 25.878C15.33 25.7998 15.3739 25.6939 15.3739 25.5834V18.0843Z" fill="#4D3C6A"/>
<path d="M17.0403 17.6677C16.9298 17.6677 16.8238 17.7116 16.7457 17.7897C16.6676 17.8679 16.6237 17.9738 16.6237 18.0843V25.5834C16.6237 25.6939 16.6676 25.7998 16.7457 25.878C16.8238 25.9561 16.9298 26 17.0403 26H22.4563C22.8428 25.9993 23.2133 25.8455 23.4866 25.5722C23.7599 25.2989 23.9137 24.9284 23.9144 24.5419V18.0843C23.9144 17.9738 23.8705 17.8679 23.7924 17.7897C23.7142 17.7116 23.6083 17.6677 23.4978 17.6677H17.0403Z" fill="#4D3C6A"/>
<path d="M16.6591 11.591C16.7604 11.6919 16.886 11.7651 17.0237 11.8035C17.1615 11.8419 17.3068 11.8442 17.4457 11.8101C18.4314 11.5693 20.8036 10.9319 21.5285 10.207C21.9905 9.74436 22.2498 9.11716 22.2493 8.46337C22.2488 7.80957 21.9887 7.18274 21.526 6.72077C21.0634 6.2588 20.4362 5.99953 19.7824 6C19.1286 6.00047 18.5018 6.26064 18.0398 6.72327C17.409 7.35403 16.8075 9.28711 16.4367 10.8061C16.4065 10.9451 16.4111 11.0894 16.4499 11.2263C16.4887 11.3632 16.5605 11.4884 16.6591 11.591ZM19.2205 7.90146C19.2938 7.82444 19.3818 7.76288 19.4793 7.72039C19.5768 7.6779 19.6818 7.65534 19.7882 7.65405C19.8945 7.65275 20.0001 7.67274 20.0986 7.71284C20.1971 7.75294 20.2866 7.81234 20.3618 7.88754C20.437 7.96274 20.4964 8.05223 20.5365 8.15073C20.5766 8.24923 20.5965 8.35476 20.5953 8.46111C20.594 8.56745 20.5714 8.67246 20.5289 8.76996C20.4864 8.86746 20.4249 8.95547 20.3478 9.02881C19.7522 9.37392 19.1118 9.63523 18.4447 9.80538C18.6139 9.13787 18.875 8.4971 19.2205 7.90146Z" fill="#4D3C6A"/>
<path d="M15.5582 10.8027C15.1883 9.28874 14.5867 7.35482 13.9576 6.72323C13.4956 6.26082 12.8689 6.00086 12.2152 6.00055C11.5616 6.00024 10.9346 6.25959 10.4722 6.72156C10.0098 7.18354 9.74982 7.81028 9.74951 8.46392C9.7492 9.11755 10.0086 9.74454 10.4705 10.207C11.1938 10.9319 13.566 11.5693 14.5533 11.8101C14.6922 11.8441 14.8376 11.8418 14.9753 11.8035C15.1131 11.7651 15.2386 11.6919 15.3399 11.5909C15.4383 11.4876 15.5097 11.3617 15.5478 11.2242C15.5859 11.0867 15.5895 10.9419 15.5582 10.8027ZM11.6495 9.02877C11.5755 8.9548 11.5168 8.86698 11.4767 8.77031C11.4366 8.67365 11.416 8.57003 11.4159 8.46539C11.4159 8.36074 11.4365 8.25711 11.4765 8.16042C11.5165 8.06372 11.5752 7.97586 11.6491 7.90183C11.7231 7.82781 11.8109 7.76908 11.9076 7.729C12.0043 7.68892 12.1079 7.66827 12.2125 7.66823C12.4239 7.66815 12.6266 7.75203 12.7761 7.90142C13.122 8.49688 13.3831 9.1377 13.5518 9.80534C12.8847 9.63607 12.2445 9.3747 11.6495 9.02877Z" fill="#4D3C6A"/>
</g>
<defs>
<clipPath id="clip0_62_4806">
<rect width="20" height="20" fill="white" transform="translate(6 6)"/>
</clipPath>
</defs>
</svg>
