<svg width="32" height="32" viewBox="0 0 32 32" fill="none" xmlns="http://www.w3.org/2000/svg">
<path d="M8.99259 20.1594C8.53146 20.247 8.11943 20.5031 7.83668 20.8778C7.55393 21.2524 7.42067 21.7189 7.46285 22.1864C7.50503 22.6539 7.71962 23.089 8.06487 23.407C8.41011 23.725 8.86132 23.9032 9.33069 23.9069H22.655C22.9177 23.913 23.1786 23.8624 23.4199 23.7585C23.6612 23.6546 23.8772 23.4998 24.0532 23.3048C24.3584 22.9518 24.5242 22.4997 24.5196 22.0331C24.5417 21.588 24.3985 21.1505 24.1175 20.8046C23.8364 20.4587 23.4375 20.2289 22.9973 20.1594H8.99259Z" fill="#4D3C6A"/>
<path d="M22.8216 19.3266C22.9177 19.3268 23.011 19.2938 23.0855 19.2331C23.16 19.1723 23.2113 19.0877 23.2305 18.9935L24.2298 13.9053C24.665 13.8799 25.0777 13.7041 25.3976 13.4079C25.7174 13.1118 25.9243 12.7137 25.9829 12.2817C26.0415 11.8498 25.9482 11.4109 25.719 11.0402C25.4897 10.6695 25.1387 10.39 24.7261 10.2496C24.3134 10.1091 23.8648 10.1165 23.457 10.2703C23.0492 10.4242 22.7075 10.715 22.4905 11.093C22.2734 11.471 22.1945 11.9127 22.2672 12.3425C22.3399 12.7722 22.5597 13.1634 22.889 13.4489L20.8696 15.7532C20.8311 15.7972 20.7837 15.8325 20.7306 15.857C20.6775 15.8814 20.6199 15.8944 20.5615 15.8951C20.503 15.8958 20.4451 15.8842 20.3914 15.8611C20.3378 15.8379 20.2896 15.8037 20.25 15.7607L16.8698 12.0724C17.3592 11.8695 17.7631 11.5032 18.0128 11.036C18.2624 10.5687 18.3424 10.0293 18.2389 9.50972C18.1355 8.99013 17.8552 8.52247 17.4456 8.1864C17.0361 7.85034 16.5227 7.66666 15.9929 7.66666C15.4631 7.66666 14.9497 7.85034 14.5401 8.1864C14.1306 8.52247 13.8502 8.99013 13.7468 9.50972C13.6434 10.0293 13.7233 10.5687 13.973 11.036C14.2226 11.5032 14.6266 11.8695 15.116 12.0724L11.7457 15.749C11.7059 15.7925 11.6574 15.8269 11.6032 15.8502C11.5491 15.8734 11.4907 15.8849 11.4318 15.8839C11.373 15.883 11.315 15.8696 11.2618 15.8446C11.2085 15.8196 11.1612 15.7837 11.1228 15.739L9.12918 13.4206C9.44976 13.1283 9.65872 12.7336 9.72025 12.3042C9.78177 11.8748 9.69204 11.4373 9.46642 11.0668C9.2408 10.6962 8.89334 10.4157 8.48358 10.2732C8.07382 10.1307 7.62726 10.1352 7.22043 10.2858C6.81359 10.4364 6.4718 10.7239 6.25363 11.0988C6.03545 11.4738 5.95447 11.913 6.02457 12.3411C6.09466 12.7692 6.31145 13.1597 6.63781 13.4455C6.96417 13.7313 7.37977 13.8947 7.8134 13.9078L8.77192 18.9877C8.78995 19.0829 8.84066 19.1689 8.91531 19.2308C8.98995 19.2927 9.08385 19.3266 9.18081 19.3266H22.8216Z" fill="#4D3C6A"/>
</svg>
